<?xml version="1.0" standalone="no"?>
<!DOCTYPE svg PUBLIC "-//W3C//DTD SVG 20010904//EN"
 "http://www.w3.org/TR/2001/REC-SVG-20010904/DTD/svg10.dtd">
<svg version="1.0" xmlns="http://www.w3.org/2000/svg"
 width="250.000000pt" height="250.000000pt" viewBox="0 0 250.000000 250.000000"
 preserveAspectRatio="xMidYMid meet">
<metadata>
Created by potrace 1.11, written by Peter Selinger 2001-2013
</metadata>
<g transform="translate(0.000000,250.000000) scale(0.100000,-0.100000)"
fill="#000000" stroke="none">
<path d="M1046 2244 c-378 -75 -681 -348 -778 -699 -29 -109 -32 -345 -4 -449
58 -216 199 -425 380 -561 60 -45 66 -53 76 -100 16 -75 -17 -267 -65 -382 -8
-20 -15 -39 -15 -44 0 -5 33 -9 73 -9 l72 1 73 98 c40 53 108 131 150 172 l77
74 -71 -75 c-72 -75 -185 -214 -204 -251 -8 -14 -7 -19 3 -19 7 0 49 42 92 93
109 128 154 175 199 208 38 28 43 29 151 29 404 0 747 204 919 546 104 208
125 469 54 688 -110 342 -424 609 -801 681 -97 18 -287 18 -381 -1z m-113
-431 c-7 -2 -19 -2 -25 0 -7 3 -2 5 12 5 14 0 19 -2 13 -5z m630 0 c-7 -2 -19
-2 -25 0 -7 3 -2 5 12 5 14 0 19 -2 13 -5z m-698 -25 c-15 -12 -36 -35 -46
-52 -10 -17 -19 -25 -19 -19 0 16 69 93 83 93 5 0 -3 -10 -18 -22z m746 5 c13
-17 13 -17 -6 -3 -11 8 -22 16 -24 17 -2 2 0 3 6 3 6 0 17 -8 24 -17z m-611
-18 c13 -14 21 -25 18 -25 -2 0 -15 11 -28 25 -13 14 -21 25 -18 25 2 0 15
-11 28 -25z m500 22 c0 -2 -12 -14 -27 -28 l-28 -24 24 28 c23 25 31 32 31 24z
m-523 -29 c37 -41 55 -89 55 -147 1 -135 -88 -221 -166 -160 -76 60 -83 216
-14 295 37 42 92 48 125 12z m631 2 c79 -74 79 -239 1 -305 -129 -108 -238
174 -117 302 28 30 86 31 116 3z m43 -17 c13 -16 12 -17 -3 -4 -10 7 -18 15
-18 17 0 8 8 3 21 -13z m-594 -145 c-3 -7 -5 -2 -5 12 0 14 2 19 5 13 2 -7 2
-19 0 -25z m-167 -177 c17 -7 20 -10 8 -10 -10 -1 -30 11 -46 27 -15 15 -19
19 -7 10 11 -9 31 -21 45 -27z m732 19 c-18 -17 -38 -30 -45 -30 -6 0 2 9 19
19 18 11 35 24 38 30 4 6 10 11 14 11 4 0 -8 -14 -26 -30z m-612 16 c0 -2 -8
-10 -17 -17 -16 -13 -17 -12 -4 4 13 16 21 21 21 13z m500 -33 c0 -7 -39 17
-46 28 -3 6 5 3 20 -6 14 -10 26 -19 26 -22z m-545 -3 c-3 -5 -14 -10 -23 -9
-14 0 -13 2 3 9 27 11 27 11 20 0z m-265 -197 c-8 -3 -22 -11 -30 -17 -13 -10
-13 -9 -1 7 7 9 21 17 30 16 13 0 14 -1 1 -6z m1040 0 c-8 -3 -22 -11 -30 -17
-13 -10 -13 -9 -1 7 7 9 21 17 30 16 13 0 14 -1 1 -6z m-994 -80 c100 -171
295 -292 473 -293 80 0 197 39 276 91 84 56 129 103 192 200 46 71 66 82 71
38 4 -32 -66 -171 -118 -233 -22 -26 -37 -52 -34 -57 3 -5 0 -8 -8 -7 -7 2
-12 -2 -11 -8 1 -6 -10 -22 -25 -35 l-27 -24 24 28 c32 35 19 35 -27 -3 -75
-60 -220 -110 -315 -110 -112 1 -259 59 -350 141 -98 88 -215 291 -186 325 6
8 15 14 19 14 4 0 25 -30 46 -67z m904 -37 c0 -2 -8 -10 -17 -17 -16 -13 -17
-12 -4 4 13 16 21 21 21 13z m-839 -23 c13 -16 12 -17 -3 -4 -10 7 -18 15 -18
17 0 8 8 3 21 -13z m809 -16 c0 -2 -19 -21 -42 -42 l-43 -40 40 43 c36 39 45
47 45 39z m-760 -42 c13 -14 21 -25 18 -25 -2 0 -15 11 -28 25 -13 14 -21 25
-18 25 2 0 15 -11 28 -25z m55 -45 c10 -11 16 -20 13 -20 -3 0 -13 9 -23 20
-10 11 -16 20 -13 20 3 0 13 -9 23 -20z m1266 -17 c-12 -20 -14 -14 -5 12 4 9
9 14 11 11 3 -2 0 -13 -6 -23z m-1400 -20 c13 -16 12 -17 -3 -4 -10 7 -18 15
-18 17 0 8 8 3 21 -13z m219 -19 c0 -2 -9 0 -20 6 -11 6 -20 13 -20 16 0 2 9
0 20 -6 11 -6 20 -13 20 -16z m660 13 c0 -2 -10 -12 -22 -23 l-23 -19 19 23
c18 21 26 27 26 19z m490 -46 c-28 -56 -35 -52 -8 4 12 24 23 43 26 41 2 -2
-6 -22 -18 -45z m-1310 -16 c19 -19 32 -35 29 -35 -3 0 -20 16 -39 35 -19 19
-32 35 -29 35 3 0 20 -16 39 -35z m333 -2 c-7 -2 -19 -2 -25 0 -7 3 -2 5 12 5
14 0 19 -2 13 -5z m114 1 c-3 -3 -12 -4 -19 -1 -8 3 -5 6 6 6 11 1 17 -2 13
-5z m-386 -51 c13 -16 12 -17 -3 -4 -10 7 -18 15 -18 17 0 8 8 3 21 -13z
m1213 5 c-29 -51 -102 -142 -150 -188 -57 -54 -57 -54 9 18 37 40 84 97 103
127 20 30 39 55 41 55 2 0 1 -6 -3 -12z m-614 -33 c0 -2 -10 -9 -22 -15 -22
-11 -22 -10 -4 4 21 17 26 19 26 11z m-505 -33 c-3 -3 -11 0 -18 7 -9 10 -8
11 6 5 10 -3 15 -9 12 -12z m425 -12 c-8 -5 -19 -10 -25 -10 -5 0 -3 5 5 10 8
5 20 10 25 10 6 0 3 -5 -5 -10z m-303 -26 c-3 -3 -12 -4 -19 -1 -8 3 -5 6 6 6
11 1 17 -2 13 -5z m773 -148 c0 -2 -8 -10 -17 -17 -16 -13 -17 -12 -4 4 13 16
21 21 21 13z"/>
</g>
</svg>
